<svg xmlns="http://www.w3.org/2000/svg" xmlns:xlink="http://www.w3.org/1999/xlink" width="500" zoomAndPan="magnify" viewBox="0 0 375 374.999991" height="500" preserveAspectRatio="xMidYMid meet" version="1.0"><defs><g/><clipPath id="a72c1ff308"><path d="M 92.113281 90.816406 L 279.613281 90.816406 L 279.613281 278 L 92.113281 278 Z M 92.113281 90.816406 " clip-rule="nonzero"/></clipPath></defs><g clip-path="url(#a72c1ff308)"><path fill="#122620" d="M 185.699219 277.988281 C 133.996094 277.988281 92.113281 235.816406 92.113281 184.402344 C 92.113281 132.988281 133.996094 90.816406 185.699219 90.816406 C 237.402344 90.816406 279.285156 132.699219 279.285156 184.402344 C 279.285156 236.105469 237.113281 277.988281 185.699219 277.988281 Z M 185.699219 96.59375 C 137.175781 96.59375 97.890625 135.875 97.890625 184.402344 C 97.890625 232.929688 137.175781 272.210938 185.699219 272.210938 C 234.226562 272.210938 273.507812 232.929688 273.507812 184.402344 C 273.507812 135.875 233.9375 96.59375 185.699219 96.59375 Z M 185.699219 96.59375 " fill-opacity="1" fill-rule="nonzero"/></g><path stroke-linecap="butt" transform="matrix(1.465975, 0, 0, 1.465975, 69.32406, 91.156364)" fill="none" stroke-linejoin="miter" d="M 9.025137 72.306736 C 9.025137 67.132067 9.456804 62.04 10.322801 57.025207 C 11.199458 52.013078 12.30527 47.230106 13.63491 42.68162 C 14.977872 38.133133 16.379456 34.010984 17.842326 30.315172 C 18.881524 27.693197 20.131225 24.927334 21.594095 22.014917 C 23.070288 19.1025 24.746327 16.331307 26.619547 13.696009 C 28.508754 11.050053 30.544515 8.85708 32.724164 7.114426 C 34.25365 5.918017 35.929688 4.91346 37.752281 4.100754 C 39.574873 3.27739 41.354831 2.864376 43.097485 2.864376 C 44.400479 2.864376 45.652845 3.149489 46.849254 3.72238 C 48.058986 4.295271 49.122165 5.206567 50.041455 6.456268 C 51.291156 8.252214 51.98129 9.952234 52.11452 11.561658 C 52.261073 13.171081 52.335682 15.006997 52.335682 17.069404 C 52.335682 18.876008 52.061228 20.911769 51.517648 23.171357 C 50.971403 25.420286 50.246629 27.74649 49.343327 30.155296 C 48.450683 32.548114 47.526064 34.850336 46.56947 37.056631 C 45.612875 39.265592 44.728225 41.186774 43.91552 42.822844 C 43.649059 43.473008 43.403915 43.979284 43.177423 44.339006 C 42.964255 44.682741 42.447321 44.935878 41.621292 45.095755 C 40.917835 44.605467 40.576765 44.171136 40.603412 43.800755 C 40.630058 43.414387 40.837897 42.841496 41.224265 42.084747 C 41.434769 41.485211 41.647938 40.94163 41.861107 40.448678 C 42.087598 39.955725 42.306096 39.438791 42.519265 38.892547 C 44.155335 35.127455 45.666168 31.271766 47.049099 27.322817 C 48.445354 23.371202 49.143482 19.195761 49.143482 14.793828 C 49.143482 12.014641 48.570591 9.986874 47.427474 8.710527 C 46.284357 7.420856 44.866785 6.776021 43.177423 6.776021 C 40.291652 6.776021 37.432528 8.190928 34.600049 11.023407 C 32.260523 13.365598 30.091531 16.238046 28.09574 19.640751 C 26.115936 23.04612 24.333312 26.696634 22.750535 30.592291 C 21.167758 34.490613 19.806143 38.372948 18.660361 42.244624 C 17.517244 46.113635 16.619271 49.678881 15.969107 52.935033 C 15.209693 56.540248 14.559529 60.483869 14.013284 64.765894 C 13.467039 69.034597 13.275188 73.3033 13.435064 77.572003 C 13.608264 81.854028 14.373006 85.818966 15.729292 89.461485 C 16.432748 91.750384 17.589189 93.751505 19.198612 95.467513 C 20.808036 97.183521 22.915741 98.041524 25.524392 98.041524 C 27.877242 98.041524 30.16614 97.428665 32.385759 96.205609 C 34.621366 94.982554 36.555871 93.743511 38.191941 92.49381 L 40.984451 90.039705 C 41.528031 89.549417 42.015654 89.136403 42.439327 88.803327 C 42.878987 88.483574 43.37194 88.051907 43.91552 87.508327 C 46.907875 84.46268 49.601794 81.150572 51.994613 77.572003 C 54.403419 74.009421 56.649683 70.297621 58.738737 66.441933 C 60.838448 62.570257 62.874209 58.754538 64.843354 54.992111 C 65.320319 54.059498 65.79462 53.422656 66.258261 53.076257 C 66.724568 52.716535 67.150905 52.538006 67.534609 52.538006 C 67.907654 52.538006 68.200761 52.676566 68.41393 52.95635 C 68.640421 53.222811 68.752335 53.489272 68.752335 53.753068 L 56.583068 75.997219 C 55.826319 77.140336 55.0749 78.251478 54.32881 79.327979 C 53.598707 80.417804 52.82597 81.510294 52.015929 82.600119 C 50.872812 84.129604 49.316681 85.957525 47.347535 88.086547 C 45.391713 90.212905 43.19874 92.293964 40.763288 94.329725 C 38.343824 96.378809 35.823104 98.065506 33.203794 99.39781 C 30.597807 100.72745 28.010472 101.390937 25.444454 101.390937 C 22.731883 101.390937 20.403015 100.72745 18.460516 99.39781 C 16.534004 98.065506 14.951226 96.312194 13.714848 94.129879 C 12.489128 91.95023 11.540527 89.56274 10.861052 86.967412 C 10.181577 84.388071 9.709941 81.814059 9.443481 79.248041 C 9.166361 76.695346 9.025137 74.379802 9.025137 72.306736 Z M 69.573034 65.125617 C 70.383075 64.899125 71.115843 64.174351 71.768672 62.951296 C 72.432159 61.725576 72.898466 60.329321 73.164927 58.759867 C 73.442046 57.179754 73.508661 55.722213 73.362108 54.392574 C 73.231542 53.049611 72.810534 52.130321 72.107077 51.640033 C 71.933877 52.236906 71.627447 53.094909 71.187787 54.214045 C 70.764114 55.330516 70.345771 56.5589 69.932757 57.904528 C 69.533065 59.234167 69.261275 60.537161 69.114722 61.813508 C 68.981491 63.089856 69.133374 64.193004 69.573034 65.125617 Z M 65.48286 62.351759 C 65.48286 61.634979 65.629414 60.582459 65.922521 59.199527 C 66.228951 57.803273 66.652624 56.308427 67.198868 54.712327 C 67.745113 53.102903 68.355308 51.578747 69.034783 50.142523 C 69.711594 48.692976 70.444361 47.504561 71.227756 46.571948 C 72.027139 45.642 72.83718 45.175693 73.663208 45.175693 C 74.206788 45.175693 74.587827 45.420837 74.800996 45.91379 C 75.0115 46.406742 75.064792 46.819757 74.958208 47.150168 C 74.851624 47.416629 74.646449 47.688419 74.340019 47.968203 C 74.049577 48.234664 73.796439 48.5331 73.58327 48.866176 C 73.689854 49.239221 73.956315 49.657565 74.379988 50.123871 C 74.819648 50.587513 75.259309 51.208367 75.696305 51.978439 C 76.135965 52.737852 76.421078 53.766391 76.554308 55.069384 C 76.687539 56.375042 76.535656 58.088386 76.095996 60.217408 C 75.499124 63.049887 74.547858 65.178909 73.244865 66.60181 C 71.939207 68.011387 70.662859 68.714844 69.413158 68.714844 C 68.376625 68.714844 67.457335 68.184587 66.660617 67.118744 C 65.877222 66.055565 65.48286 64.467458 65.48286 62.351759 Z M 87.623092 65.125617 C 88.062752 65.019032 88.294573 64.925771 88.321219 64.845833 C 88.347865 64.752571 88.555705 64.574043 88.939408 64.307582 C 89.205869 64.08109 89.405715 63.902561 89.538945 63.769331 C 89.685499 63.6361 89.864028 63.489547 90.077196 63.32967 L 97.439509 58.261585 C 98.036382 57.877882 98.715857 57.496843 99.472606 57.126462 C 100.232019 56.740094 101.023408 56.545577 101.846772 56.545577 C 102.499601 56.545577 103.096473 56.705454 103.642718 57.025207 C 104.346174 57.464867 104.793829 58.09638 104.977687 58.919744 C 105.177532 59.732449 105.265464 60.537161 105.238818 61.333879 C 105.212172 62.119938 105.198849 62.75678 105.198849 63.249732 C 106.288674 62.426368 107.418468 61.515072 108.588231 60.515844 C 109.760659 59.505957 110.778539 58.509394 111.641872 57.523489 L 116.390204 53.196165 C 116.880492 52.863089 117.208239 52.697883 117.368116 52.697883 C 117.525328 52.697883 117.853074 52.863089 118.343362 53.196165 C 118.29007 53.739745 118.22612 54.067492 118.146181 54.174076 C 118.066243 54.28066 117.858404 54.525804 117.525328 54.912172 C 116.821871 55.775506 115.883929 56.740094 114.714166 57.803273 C 113.544403 58.866451 112.358652 59.918972 111.162243 60.955504 C 109.965834 61.992037 108.929301 62.916656 108.04998 63.729362 C 107.786184 64.006481 107.591667 64.187674 107.47176 64.267613 C 107.365176 64.347551 107.178653 64.494104 106.914857 64.704608 C 105.87566 65.583929 105.164209 66.228764 104.780506 66.641779 C 104.40746 67.038805 104.159652 67.44649 104.042409 67.85684 C 103.935825 68.269854 103.767954 68.896037 103.541463 69.732725 C 103.330959 70.585399 102.843335 71.880399 102.086586 73.623053 C 101.103346 75.855995 100.064149 77.913072 98.974324 79.786292 C 97.897822 81.662176 96.725394 83.556713 95.46237 85.472566 C 95.249201 85.739027 95.070672 85.965519 94.924119 86.152042 C 94.790889 86.349223 94.591043 86.583708 94.327247 86.850169 L 91.473451 90.697864 C 90.873914 91.350693 90.018575 92.261989 88.899439 93.431752 C 87.782968 94.601515 86.565242 95.659365 85.248926 96.602636 C 83.945932 97.561895 82.722877 98.041524 81.57976 98.041524 C 81.366591 98.041524 81.172075 98.028201 81.00154 98.001555 C 80.841663 97.974909 80.681787 97.93494 80.52191 97.881648 C 79.695882 97.561895 79.192271 96.989004 79.005748 96.16564 C 78.819226 95.352935 78.819226 94.481608 79.005748 93.551659 C 79.192271 92.635034 79.424092 91.816999 79.703876 91.097555 C 80.460624 89.528101 81.233361 88.073224 82.016756 86.730262 C 82.816138 85.400622 83.786056 84.049666 84.929173 82.680057 C 85.262249 82.200427 85.576673 81.755438 85.867115 81.342423 C 86.173545 80.932074 86.51195 80.47909 86.884995 79.986138 C 87.164779 79.826261 87.383277 79.661056 87.543154 79.487856 C 87.70303 79.327979 87.894882 79.114811 88.121374 78.84835 C 89.160571 77.598649 90.463564 76.250357 92.033019 74.80081 C 93.615796 73.364586 94.977411 72.048269 96.120528 70.849195 L 101.108675 66.681748 C 101.548336 66.188795 101.860095 65.464022 102.046617 64.507427 C 102.23314 63.548168 102.339724 62.58358 102.36637 61.613663 C 102.393016 60.630422 102.299755 59.892326 102.086586 59.399373 C 101.050054 59.399373 100.064149 59.65784 99.1342 60.177439 C 98.21491 60.697037 97.431515 61.174002 96.778686 61.613663 C 95.528985 62.373076 94.492452 63.036564 93.669088 63.609454 C 92.856383 64.179681 92.064994 64.765894 91.294922 65.365431 C 90.535509 65.962304 89.584244 66.727046 88.441127 67.656995 C 88.054758 67.923455 87.457886 68.384433 86.645181 69.034597 C 85.83514 69.700749 85.097043 70.031161 84.430891 70.031161 C 84.16443 70.031161 83.953926 69.945893 83.79405 69.772694 C 83.354389 69.333033 83.322414 68.621583 83.692794 67.638342 C 84.079163 66.668425 84.585438 65.695843 85.208957 64.725925 C 85.83514 63.742685 86.261477 63.05788 86.485304 62.671512 L 92.192895 53.196165 C 92.736475 52.210259 93.336012 51.067142 93.986177 49.764149 C 94.652329 48.447832 95.22522 47.136845 95.702185 45.833852 C 96.195137 44.530858 96.440281 43.387741 96.440281 42.4045 C 95.736825 42.50842 94.945436 42.881465 94.066115 43.520971 C 93.202782 44.14449 92.549953 44.696064 92.112957 45.175693 C 91.739912 45.508769 91.41483 45.77523 91.135046 45.975076 C 90.868585 46.158934 90.543503 46.438718 90.157134 46.811763 C 89.837381 47.198131 89.565591 47.531207 89.3391 47.808326 C 89.125931 48.074787 88.827495 48.399869 88.441127 48.786238 C 86.858349 50.355692 85.808494 51.632039 85.288895 52.617945 C 84.771961 53.601185 84.457537 54.339282 84.350953 54.832234 C 84.244368 55.322522 84.039194 55.650269 83.732764 55.807481 C 83.439657 55.967357 82.722877 56.047296 81.57976 56.047296 C 81.086807 55.237255 80.868309 54.55778 80.921602 54.014199 C 80.974894 53.467955 81.299976 52.841772 81.896848 52.138315 C 82.496385 51.418871 83.31442 50.462276 84.350953 49.265867 C 84.737321 48.826207 85.403473 48.136073 86.346744 47.190137 C 87.303339 46.233543 88.409151 45.223656 89.658853 44.157813 C 90.921877 43.094634 92.179572 42.183338 93.429274 41.426589 C 94.678975 40.667176 95.742154 40.288801 96.621475 40.288801 C 97.5381 40.288801 98.137637 40.720468 98.414756 41.586466 C 98.627925 42.40983 98.582626 43.406393 98.276196 44.578821 C 97.983089 45.748584 97.551423 46.971639 96.978532 48.247987 C 96.408306 49.524334 95.835415 50.680774 95.262524 51.719972 C 94.692298 52.756504 94.247308 53.574539 93.927555 54.174076 C 93.754356 54.504487 93.341342 55.202615 92.691177 56.268458 C 92.038348 57.318314 91.326898 58.488077 90.556826 59.777747 C 89.797412 61.054095 89.133925 62.2132 88.561034 63.249732 C 87.988143 64.272942 87.676384 64.899125 87.623092 65.125617 Z M 81.081478 95.187729 C 81.081478 95.627389 81.27333 95.845887 81.659698 95.845887 C 82.363155 95.845887 83.261128 95.392904 84.350953 94.489601 C 85.443442 93.599622 86.559913 92.520456 87.70303 91.257431 C 88.846147 90.00773 89.864028 88.811321 90.756671 87.668204 C 91.659974 86.522422 92.278163 85.704387 92.611239 85.214099 C 93.101527 84.454686 93.741033 83.436806 94.524428 82.160458 C 95.32381 80.884111 96.115199 79.519831 96.898594 78.070284 C 97.684653 76.620737 98.401433 75.219153 99.054262 73.862868 C 99.71775 72.506582 100.15741 71.3608 100.370579 70.430852 C 99.930918 70.763928 99.334046 71.243557 98.574633 71.867076 C 97.817884 72.493259 97.066464 73.1301 96.320374 73.782929 C 95.590271 74.433094 94.977411 74.979339 94.487123 75.418999 C 93.501218 76.22904 92.603245 77.11369 91.793204 78.070284 C 90.980498 79.029543 90.109172 79.994132 89.179223 80.964049 L 86.725119 83.996373 C 86.021662 84.926322 85.230273 86.032134 84.350953 87.308482 C 83.48762 88.584829 82.722877 89.901146 82.056725 91.257431 C 81.40656 92.62704 81.081478 93.938027 81.081478 95.187729 Z M 116.960431 99.754868 C 118.543208 99.754868 119.96078 99.291226 121.210481 98.358613 C 122.460182 97.441988 123.558001 96.330846 124.501273 95.027852 C 125.460532 93.724859 126.262579 92.501804 126.915408 91.358687 C 127.528268 90.212905 128.199749 88.576835 128.929852 86.450478 C 129.662619 84.321456 130.352753 82.013905 131.005582 79.527825 C 131.655746 77.055068 132.215314 74.712878 132.68162 72.506582 C 133.145262 70.310945 133.43304 68.581614 133.539624 67.318589 C 132.886795 67.704957 132.287258 68.117972 131.743678 68.554968 L 123.744524 75.658814 C 123.518032 75.882641 123.296869 76.143772 123.086365 76.436879 C 122.873197 76.740645 122.598742 77.028422 122.268331 77.292219 C 120.965337 78.597877 119.792909 79.90087 118.756377 81.203864 C 117.719844 82.52018 116.680647 83.969727 115.644114 85.552505 C 115.151162 86.255961 114.634227 87.153934 114.087983 88.246424 C 113.544403 89.336249 113.096748 90.492689 112.753014 91.715744 C 112.393292 92.938799 112.260061 94.151196 112.353323 95.347605 C 112.433261 96.544015 112.878251 97.580547 113.688292 98.459868 C 114.394413 99.323201 115.484238 99.754868 116.960431 99.754868 Z M 118.836315 59.817717 C 119.646356 59.380721 120.597621 58.522717 121.690111 57.246369 C 122.779935 55.954034 123.923052 54.424549 125.119462 52.657914 C 126.315871 50.888614 127.488299 49.066022 128.631416 47.190137 C 129.787856 45.303594 130.837711 43.560941 131.783647 41.96484 C 132.740242 40.355417 133.491661 39.057752 134.037906 38.074512 C 134.688071 36.984687 135.135725 36.265243 135.372875 35.918844 C 135.626013 35.561786 136.18558 35.380593 137.048914 35.380593 C 137.488574 35.380593 137.813656 35.695016 138.026825 36.318535 C 138.253317 36.944718 138.418522 37.70946 138.525107 38.612763 C 138.631691 39.502742 138.684983 40.360746 138.684983 41.186774 C 138.684983 41.996815 138.684983 42.622998 138.684983 43.062659 L 138.684983 49.345805 C 138.684983 50.715414 138.618368 52.164961 138.485138 53.694446 C 138.351907 55.210609 138.226671 56.625516 138.106763 57.944497 C 138.000179 59.24749 137.946887 60.276029 137.946887 61.035443 L 149.636524 54.254014 C 149.916308 54.094138 150.489198 53.713099 151.352532 53.116226 C 152.229188 52.516689 152.967284 52.218253 153.566821 52.218253 C 154.059774 52.218253 154.304918 52.516689 154.304918 53.116226 C 154.304918 53.489272 153.851934 54.006206 152.948632 54.672358 C 152.04533 55.322522 151.086071 55.922059 150.076184 56.468304 C 149.079621 57.011884 148.413469 57.390258 148.080392 57.603427 C 146.391031 58.53604 144.717657 59.532603 143.054941 60.595782 C 141.405548 61.648303 139.788131 62.716811 138.205354 63.8093 C 137.82165 64.086419 137.613811 64.320905 137.587164 64.507427 C 137.560518 64.691285 137.493903 65.085647 137.387319 65.68252 C 137.003615 68.357787 136.457371 71.382117 135.753914 74.760841 C 135.047793 78.136899 134.176466 81.430356 133.139933 84.635879 C 132.1034 87.852062 130.904327 90.553975 129.548041 92.733624 C 128.777969 94.209818 127.752095 95.667358 126.475747 97.103582 C 125.1994 98.553129 123.77117 99.749538 122.188392 100.69281 C 120.605615 101.652069 118.916253 102.129034 117.120307 102.129034 C 115.100534 102.129034 113.411172 101.444229 112.054887 100.074621 C 110.695936 98.718335 110.019126 96.815805 110.019126 94.369694 C 110.019126 92.573748 110.485432 90.639242 111.415381 88.563512 C 112.332006 86.50377 113.563055 84.396065 115.105863 82.240396 C 116.661995 80.087393 118.338033 78.024986 120.133979 76.05584 C 121.940584 74.102682 123.744524 72.320059 125.537805 70.710636 C 127.333751 69.114535 128.943175 67.798219 130.366076 66.761686 C 130.632536 66.481902 130.872351 66.274063 131.08552 66.143497 C 131.312012 66.010267 131.583802 65.829073 131.903555 65.602581 C 132.673627 64.952417 133.233194 64.507427 133.579593 64.267613 C 133.936651 64.014475 134.14449 63.534845 134.197783 62.831389 C 134.528194 60.052202 134.829295 57.491513 135.095756 55.149323 C 135.372875 52.809796 135.580714 50.403655 135.713945 47.928234 C 135.847175 45.442154 135.911126 42.649644 135.911126 39.550705 C 135.753914 39.657289 135.30093 40.294131 134.55484 41.466558 C 133.824737 42.636321 132.99338 43.997936 132.063431 45.554068 C 131.144141 47.110199 130.272814 48.554417 129.44945 49.884056 C 128.636745 51.213696 128.066519 52.124992 127.733443 52.617945 C 126.923402 53.920938 125.932167 55.463746 124.762404 57.246369 C 123.589976 59.013005 122.460182 60.40926 121.370358 61.435134 C 120.33116 62.365082 119.38256 62.831389 118.516562 62.831389 C 117.639906 62.831389 116.901809 62.413045 116.302272 61.573694 C 115.7054 60.723683 115.404299 59.591225 115.404299 58.181647 C 115.404299 57.304991 115.510884 56.215166 115.724052 54.912172 C 115.950544 53.593191 116.275626 52.298192 116.701964 51.021844 C 117.141624 49.745497 117.645235 48.674324 118.218126 47.808326 C 118.791017 46.93167 119.401212 46.49201 120.054041 46.49201 C 120.983989 46.49201 121.450296 46.819757 121.450296 47.469921 C 121.450296 48.12275 121.229133 49.034046 120.792138 50.203809 C 120.3658 51.373572 119.934134 52.777821 119.494473 54.411226 C 119.054813 56.047296 118.836315 57.851236 118.836315 59.817717 Z M 118.836315 59.817717 " stroke="#fffef9" stroke-width="6.128468" stroke-opacity="1" stroke-miterlimit="4"/><g fill="#122620" fill-opacity="1"><g transform="translate(83.754754, 189.376706)"><g><path d="M -1.203125 7.78125 C -1.203125 0.195312 -0.5625 -7.265625 0.71875 -14.609375 C 2 -21.960938 3.613281 -28.972656 5.5625 -35.640625 C 7.519531 -42.304688 9.578125 -48.351562 11.734375 -53.78125 C 13.253906 -57.613281 15.09375 -61.664062 17.25 -65.9375 C 19.40625 -70.207031 21.859375 -74.28125 24.609375 -78.15625 C 27.367188 -82.03125 30.34375 -85.242188 33.53125 -87.796875 C 35.769531 -89.554688 38.226562 -91.035156 40.90625 -92.234375 C 43.582031 -93.429688 46.195312 -94.03125 48.75 -94.03125 C 50.664062 -94.03125 52.5 -93.609375 54.25 -92.765625 C 56.007812 -91.929688 57.570312 -90.597656 58.9375 -88.765625 C 60.769531 -86.128906 61.785156 -83.628906 61.984375 -81.265625 C 62.179688 -78.910156 62.28125 -76.21875 62.28125 -73.1875 C 62.28125 -70.550781 61.878906 -67.578125 61.078125 -64.265625 C 60.285156 -60.953125 59.226562 -57.535156 57.90625 -54.015625 C 56.59375 -50.503906 55.238281 -47.128906 53.84375 -43.890625 C 52.445312 -40.660156 51.148438 -37.847656 49.953125 -35.453125 C 49.546875 -34.492188 49.179688 -33.753906 48.859375 -33.234375 C 48.546875 -32.710938 47.789062 -32.332031 46.59375 -32.09375 C 45.550781 -32.8125 45.050781 -33.453125 45.09375 -34.015625 C 45.132812 -34.578125 45.4375 -35.414062 46 -36.53125 C 46.3125 -37.40625 46.628906 -38.203125 46.953125 -38.921875 C 47.273438 -39.640625 47.59375 -40.398438 47.90625 -41.203125 C 50.300781 -46.710938 52.515625 -52.363281 54.546875 -58.15625 C 56.585938 -63.945312 57.609375 -70.078125 57.609375 -76.546875 C 57.609375 -80.617188 56.769531 -83.59375 55.09375 -85.46875 C 53.414062 -87.34375 51.34375 -88.28125 48.875 -88.28125 C 44.632812 -88.28125 40.441406 -86.203125 36.296875 -82.046875 C 32.859375 -78.617188 29.679688 -74.40625 26.765625 -69.40625 C 23.859375 -64.414062 21.242188 -59.066406 18.921875 -53.359375 C 16.609375 -47.648438 14.613281 -41.960938 12.9375 -36.296875 C 11.257812 -30.628906 9.941406 -25.398438 8.984375 -20.609375 C 7.867188 -15.335938 6.910156 -9.566406 6.109375 -3.296875 C 5.304688 2.972656 5.023438 9.242188 5.265625 15.515625 C 5.503906 21.785156 6.625 27.59375 8.625 32.9375 C 9.664062 36.289062 11.363281 39.222656 13.71875 41.734375 C 16.070312 44.253906 19.164062 45.515625 23 45.515625 C 26.4375 45.515625 29.789062 44.613281 33.0625 42.8125 C 36.332031 41.019531 39.164062 39.207031 41.5625 37.375 L 45.640625 33.78125 C 46.429688 33.0625 47.144531 32.460938 47.78125 31.984375 C 48.425781 31.503906 49.148438 30.863281 49.953125 30.0625 C 54.335938 25.59375 58.285156 20.742188 61.796875 15.515625 C 65.316406 10.285156 68.613281 4.835938 71.6875 -0.828125 C 74.757812 -6.503906 77.734375 -12.097656 80.609375 -17.609375 C 81.328125 -18.960938 82.023438 -19.898438 82.703125 -20.421875 C 83.390625 -20.941406 84.007812 -21.203125 84.5625 -21.203125 C 85.125 -21.203125 85.5625 -21 85.875 -20.59375 C 86.195312 -20.195312 86.359375 -19.800781 86.359375 -19.40625 L 68.515625 13.171875 C 67.398438 14.847656 66.300781 16.484375 65.21875 18.078125 C 64.144531 19.679688 63.007812 21.28125 61.8125 22.875 C 60.132812 25.113281 57.859375 27.789062 54.984375 30.90625 C 52.109375 34.019531 48.890625 37.070312 45.328125 40.0625 C 41.773438 43.0625 38.082031 45.535156 34.25 47.484375 C 30.425781 49.441406 26.632812 50.421875 22.875 50.421875 C 18.882812 50.421875 15.472656 49.441406 12.640625 47.484375 C 9.804688 45.535156 7.488281 42.960938 5.6875 39.765625 C 3.894531 36.566406 2.5 33.070312 1.5 29.28125 C 0.5 25.488281 -0.195312 21.71875 -0.59375 17.96875 C -1 14.21875 -1.203125 10.820312 -1.203125 7.78125 Z M -1.203125 7.78125 "/></g></g></g><g fill="#122620" fill-opacity="1"><g transform="translate(165.321436, 189.376706)"><g><path d="M 5.984375 -2.75 C 7.179688 -3.070312 8.257812 -4.128906 9.21875 -5.921875 C 10.175781 -7.722656 10.851562 -9.78125 11.25 -12.09375 C 11.65625 -14.414062 11.757812 -16.550781 11.5625 -18.5 C 11.363281 -20.457031 10.742188 -21.796875 9.703125 -22.515625 C 9.460938 -21.640625 9.019531 -20.382812 8.375 -18.75 C 7.738281 -17.113281 7.117188 -15.316406 6.515625 -13.359375 C 5.921875 -11.398438 5.523438 -9.484375 5.328125 -7.609375 C 5.128906 -5.734375 5.347656 -4.113281 5.984375 -2.75 Z M 0 -6.828125 C 0 -7.867188 0.21875 -9.40625 0.65625 -11.4375 C 1.09375 -13.476562 1.710938 -15.675781 2.515625 -18.03125 C 3.316406 -20.382812 4.210938 -22.617188 5.203125 -24.734375 C 6.203125 -26.847656 7.28125 -28.582031 8.4375 -29.9375 C 9.601562 -31.300781 10.785156 -31.984375 11.984375 -31.984375 C 12.773438 -31.984375 13.332031 -31.625 13.65625 -30.90625 C 13.976562 -30.1875 14.054688 -29.585938 13.890625 -29.109375 C 13.734375 -28.710938 13.4375 -28.3125 13 -27.90625 C 12.5625 -27.507812 12.179688 -27.070312 11.859375 -26.59375 C 12.015625 -26.03125 12.410156 -25.410156 13.046875 -24.734375 C 13.691406 -24.054688 14.332031 -23.15625 14.96875 -22.03125 C 15.613281 -20.914062 16.035156 -19.398438 16.234375 -17.484375 C 16.429688 -15.566406 16.210938 -13.050781 15.578125 -9.9375 C 14.691406 -5.789062 13.289062 -2.675781 11.375 -0.59375 C 9.457031 1.476562 7.582031 2.515625 5.75 2.515625 C 4.226562 2.515625 2.890625 1.734375 1.734375 0.171875 C 0.578125 -1.378906 0 -3.710938 0 -6.828125 Z M 0 -6.828125 "/></g></g></g><g fill="#122620" fill-opacity="1"><g transform="translate(186.40181, 189.376706)"><g><path d="M 11.375 -2.75 C 12.019531 -2.914062 12.359375 -3.054688 12.390625 -3.171875 C 12.429688 -3.296875 12.734375 -3.554688 13.296875 -3.953125 C 13.691406 -4.273438 13.988281 -4.535156 14.1875 -4.734375 C 14.394531 -4.929688 14.65625 -5.148438 14.96875 -5.390625 L 25.75 -12.8125 C 26.632812 -13.375 27.632812 -13.929688 28.75 -14.484375 C 29.863281 -15.046875 31.019531 -15.328125 32.21875 -15.328125 C 33.175781 -15.328125 34.054688 -15.085938 34.859375 -14.609375 C 35.890625 -13.972656 36.546875 -13.054688 36.828125 -11.859375 C 37.109375 -10.660156 37.226562 -9.484375 37.1875 -8.328125 C 37.144531 -7.171875 37.125 -6.234375 37.125 -5.515625 C 38.726562 -6.710938 40.382812 -8.046875 42.09375 -9.515625 C 43.8125 -10.992188 45.3125 -12.453125 46.59375 -13.890625 L 53.546875 -20.25 C 54.265625 -20.726562 54.742188 -20.96875 54.984375 -20.96875 C 55.222656 -20.96875 55.703125 -20.726562 56.421875 -20.25 C 56.335938 -19.445312 56.234375 -18.960938 56.109375 -18.796875 C 55.992188 -18.640625 55.695312 -18.285156 55.21875 -17.734375 C 54.175781 -16.453125 52.796875 -15.03125 51.078125 -13.46875 C 49.367188 -11.914062 47.632812 -10.378906 45.875 -8.859375 C 44.113281 -7.347656 42.597656 -5.992188 41.328125 -4.796875 C 40.921875 -4.390625 40.640625 -4.125 40.484375 -4 C 40.328125 -3.882812 40.046875 -3.671875 39.640625 -3.359375 C 38.128906 -2.078125 37.09375 -1.132812 36.53125 -0.53125 C 35.96875 0.0625 35.609375 0.65625 35.453125 1.25 C 35.296875 1.851562 35.054688 2.773438 34.734375 4.015625 C 34.410156 5.253906 33.691406 7.148438 32.578125 9.703125 C 31.140625 12.972656 29.625 15.984375 28.03125 18.734375 C 26.4375 21.492188 24.71875 24.273438 22.875 27.078125 C 22.5625 27.472656 22.300781 27.8125 22.09375 28.09375 C 21.894531 28.375 21.597656 28.710938 21.203125 29.109375 L 17.015625 34.734375 C 16.128906 35.691406 14.867188 37.03125 13.234375 38.75 C 11.597656 40.46875 9.820312 42.023438 7.90625 43.421875 C 5.988281 44.816406 4.191406 45.515625 2.515625 45.515625 C 2.191406 45.515625 1.910156 45.492188 1.671875 45.453125 C 1.429688 45.410156 1.191406 45.351562 0.953125 45.28125 C -0.242188 44.800781 -0.976562 43.960938 -1.25 42.765625 C -1.53125 41.566406 -1.53125 40.285156 -1.25 38.921875 C -0.976562 37.566406 -0.640625 36.367188 -0.234375 35.328125 C 0.878906 33.015625 2.015625 30.878906 3.171875 28.921875 C 4.328125 26.972656 5.742188 25 7.421875 23 C 7.898438 22.28125 8.359375 21.617188 8.796875 21.015625 C 9.242188 20.421875 9.742188 19.765625 10.296875 19.046875 C 10.703125 18.804688 11.023438 18.566406 11.265625 18.328125 C 11.503906 18.085938 11.78125 17.769531 12.09375 17.375 C 13.613281 15.53125 15.53125 13.550781 17.84375 11.4375 C 20.164062 9.320312 22.164062 7.382812 23.84375 5.625 L 31.140625 -0.484375 C 31.773438 -1.203125 32.234375 -2.257812 32.515625 -3.65625 C 32.796875 -5.050781 32.957031 -6.46875 33 -7.90625 C 33.039062 -9.34375 32.898438 -10.421875 32.578125 -11.140625 C 31.054688 -11.140625 29.617188 -10.757812 28.265625 -10 C 26.910156 -9.238281 25.753906 -8.539062 24.796875 -7.90625 C 22.960938 -6.789062 21.445312 -5.8125 20.25 -4.96875 C 19.050781 -4.132812 17.890625 -3.273438 16.765625 -2.390625 C 15.648438 -1.515625 14.253906 -0.398438 12.578125 0.953125 C 12.015625 1.359375 11.132812 2.039062 9.9375 3 C 8.738281 3.957031 7.660156 4.4375 6.703125 4.4375 C 6.304688 4.4375 5.988281 4.316406 5.75 4.078125 C 5.113281 3.429688 5.070312 2.390625 5.625 0.953125 C 6.1875 -0.484375 6.925781 -1.921875 7.84375 -3.359375 C 8.757812 -4.796875 9.378906 -5.789062 9.703125 -6.34375 L 18.09375 -20.25 C 18.882812 -21.6875 19.757812 -23.363281 20.71875 -25.28125 C 21.675781 -27.195312 22.515625 -29.109375 23.234375 -31.015625 C 23.953125 -32.929688 24.3125 -34.609375 24.3125 -36.046875 C 23.28125 -35.890625 22.125 -35.351562 20.84375 -34.4375 C 19.5625 -33.519531 18.601562 -32.703125 17.96875 -31.984375 C 17.40625 -31.503906 16.925781 -31.125 16.53125 -30.84375 C 16.132812 -30.5625 15.65625 -30.144531 15.09375 -29.59375 C 14.613281 -29.03125 14.210938 -28.546875 13.890625 -28.140625 C 13.578125 -27.742188 13.140625 -27.269531 12.578125 -26.71875 C 10.265625 -24.394531 8.726562 -22.515625 7.96875 -21.078125 C 7.207031 -19.640625 6.742188 -18.5625 6.578125 -17.84375 C 6.421875 -17.125 6.125 -16.644531 5.6875 -16.40625 C 5.25 -16.164062 4.191406 -16.046875 2.515625 -16.046875 C 1.796875 -17.242188 1.472656 -18.242188 1.546875 -19.046875 C 1.628906 -19.847656 2.109375 -20.765625 2.984375 -21.796875 C 3.867188 -22.835938 5.070312 -24.238281 6.59375 -26 C 7.144531 -26.632812 8.117188 -27.648438 9.515625 -29.046875 C 10.921875 -30.441406 12.539062 -31.914062 14.375 -33.46875 C 16.207031 -35.03125 18.039062 -36.367188 19.875 -37.484375 C 21.71875 -38.609375 23.28125 -39.171875 24.5625 -39.171875 C 25.914062 -39.171875 26.789062 -38.53125 27.1875 -37.25 C 27.507812 -36.050781 27.453125 -34.59375 27.015625 -32.875 C 26.578125 -31.15625 25.9375 -29.359375 25.09375 -27.484375 C 24.257812 -25.609375 23.421875 -23.910156 22.578125 -22.390625 C 21.742188 -20.878906 21.085938 -19.6875 20.609375 -18.8125 C 20.367188 -18.332031 19.769531 -17.3125 18.8125 -15.75 C 17.851562 -14.195312 16.8125 -12.476562 15.6875 -10.59375 C 14.570312 -8.71875 13.59375 -7.019531 12.75 -5.5 C 11.914062 -3.988281 11.457031 -3.070312 11.375 -2.75 Z M 1.796875 41.328125 C 1.796875 41.960938 2.078125 42.28125 2.640625 42.28125 C 3.671875 42.28125 4.984375 41.617188 6.578125 40.296875 C 8.179688 38.984375 9.820312 37.40625 11.5 35.5625 C 13.175781 33.726562 14.671875 31.972656 15.984375 30.296875 C 17.304688 28.628906 18.207031 27.4375 18.6875 26.71875 C 19.40625 25.59375 20.34375 24.09375 21.5 22.21875 C 22.65625 20.34375 23.8125 18.347656 24.96875 16.234375 C 26.132812 14.117188 27.195312 12.0625 28.15625 10.0625 C 29.113281 8.0625 29.75 6.382812 30.0625 5.03125 C 29.425781 5.507812 28.546875 6.207031 27.421875 7.125 C 26.304688 8.039062 25.207031 8.976562 24.125 9.9375 C 23.050781 10.894531 22.15625 11.695312 21.4375 12.34375 C 20 13.539062 18.679688 14.835938 17.484375 16.234375 C 16.285156 17.628906 15.007812 19.046875 13.65625 20.484375 L 10.0625 24.921875 C 9.019531 26.273438 7.859375 27.890625 6.578125 29.765625 C 5.304688 31.640625 4.191406 33.570312 3.234375 35.5625 C 2.273438 37.5625 1.796875 39.484375 1.796875 41.328125 Z M 1.796875 41.328125 "/></g></g></g><g fill="#122620" fill-opacity="1"><g transform="translate(237.306132, 189.376706)"><g><path d="M 3.46875 48.03125 C 5.789062 48.03125 7.867188 47.347656 9.703125 45.984375 C 11.535156 44.628906 13.148438 42.992188 14.546875 41.078125 C 15.953125 39.160156 17.132812 37.363281 18.09375 35.6875 C 18.96875 34.007812 19.941406 31.613281 21.015625 28.5 C 22.097656 25.394531 23.117188 22.023438 24.078125 18.390625 C 25.035156 14.753906 25.851562 11.316406 26.53125 8.078125 C 27.207031 4.847656 27.628906 2.316406 27.796875 0.484375 C 26.835938 1.035156 25.957031 1.632812 25.15625 2.28125 L 13.421875 12.703125 C 13.097656 13.015625 12.773438 13.390625 12.453125 13.828125 C 12.140625 14.273438 11.742188 14.695312 11.265625 15.09375 C 9.347656 17.007812 7.628906 18.925781 6.109375 20.84375 C 4.585938 22.757812 3.070312 24.875 1.5625 27.1875 C 0.84375 28.226562 0.0820312 29.546875 -0.71875 31.140625 C -1.519531 32.734375 -2.175781 34.425781 -2.6875 36.21875 C -3.207031 38.019531 -3.40625 39.800781 -3.28125 41.5625 C -3.164062 43.320312 -2.507812 44.835938 -1.3125 46.109375 C -0.28125 47.390625 1.3125 48.03125 3.46875 48.03125 Z M 6.234375 -10.546875 C 7.429688 -11.179688 8.828125 -12.4375 10.421875 -14.3125 C 12.015625 -16.1875 13.691406 -18.421875 15.453125 -21.015625 C 17.210938 -23.617188 18.929688 -26.296875 20.609375 -29.046875 C 22.285156 -31.796875 23.820312 -34.347656 25.21875 -36.703125 C 26.613281 -39.066406 27.710938 -40.96875 28.515625 -42.40625 C 29.472656 -44 30.128906 -45.054688 30.484375 -45.578125 C 30.835938 -46.097656 31.65625 -46.359375 32.9375 -46.359375 C 33.570312 -46.359375 34.050781 -45.894531 34.375 -44.96875 C 34.695312 -44.050781 34.9375 -42.929688 35.09375 -41.609375 C 35.25 -40.296875 35.328125 -39.039062 35.328125 -37.84375 C 35.328125 -36.644531 35.328125 -35.726562 35.328125 -35.09375 L 35.328125 -25.875 C 35.328125 -23.875 35.226562 -21.753906 35.03125 -19.515625 C 34.832031 -17.285156 34.648438 -15.210938 34.484375 -13.296875 C 34.328125 -11.378906 34.25 -9.863281 34.25 -8.75 L 51.390625 -18.6875 C 51.785156 -18.925781 52.617188 -19.484375 53.890625 -20.359375 C 55.171875 -21.242188 56.253906 -21.6875 57.140625 -21.6875 C 57.859375 -21.6875 58.21875 -21.242188 58.21875 -20.359375 C 58.21875 -19.804688 57.554688 -19.050781 56.234375 -18.09375 C 54.921875 -17.132812 53.523438 -16.253906 52.046875 -15.453125 C 50.566406 -14.648438 49.585938 -14.09375 49.109375 -13.78125 C 46.628906 -12.414062 44.171875 -10.953125 41.734375 -9.390625 C 39.304688 -7.835938 36.929688 -6.265625 34.609375 -4.671875 C 34.054688 -4.273438 33.757812 -3.9375 33.71875 -3.65625 C 33.675781 -3.375 33.578125 -2.796875 33.421875 -1.921875 C 32.859375 1.992188 32.054688 6.425781 31.015625 11.375 C 29.984375 16.332031 28.707031 21.164062 27.1875 25.875 C 25.675781 30.582031 23.921875 34.535156 21.921875 37.734375 C 20.804688 39.890625 19.304688 42.023438 17.421875 44.140625 C 15.546875 46.253906 13.453125 48.007812 11.140625 49.40625 C 8.828125 50.800781 6.351562 51.5 3.71875 51.5 C 0.757812 51.5 -1.710938 50.5 -3.703125 48.5 C -5.703125 46.507812 -6.703125 43.71875 -6.703125 40.125 C -6.703125 37.488281 -6.023438 34.65625 -4.671875 31.625 C -3.316406 28.59375 -1.503906 25.5 0.765625 22.34375 C 3.046875 19.1875 5.503906 16.171875 8.140625 13.296875 C 10.773438 10.421875 13.410156 7.804688 16.046875 5.453125 C 18.679688 3.097656 21.039062 1.160156 23.125 -0.359375 C 23.519531 -0.753906 23.875 -1.050781 24.1875 -1.25 C 24.507812 -1.457031 24.910156 -1.71875 25.390625 -2.03125 C 26.515625 -2.988281 27.332031 -3.644531 27.84375 -4 C 28.363281 -4.363281 28.664062 -5.066406 28.75 -6.109375 C 29.226562 -10.179688 29.664062 -13.929688 30.0625 -17.359375 C 30.457031 -20.796875 30.753906 -24.332031 30.953125 -27.96875 C 31.160156 -31.601562 31.265625 -35.695312 31.265625 -40.25 C 31.023438 -40.082031 30.363281 -39.140625 29.28125 -37.421875 C 28.207031 -35.710938 26.988281 -33.71875 25.625 -31.4375 C 24.269531 -29.164062 22.992188 -27.050781 21.796875 -25.09375 C 20.597656 -23.132812 19.757812 -21.796875 19.28125 -21.078125 C 18.082031 -19.160156 16.625 -16.90625 14.90625 -14.3125 C 13.195312 -11.71875 11.539062 -9.660156 9.9375 -8.140625 C 8.425781 -6.785156 7.03125 -6.109375 5.75 -6.109375 C 4.46875 -6.109375 3.390625 -6.726562 2.515625 -7.96875 C 1.640625 -9.207031 1.203125 -10.863281 1.203125 -12.9375 C 1.203125 -14.21875 1.359375 -15.816406 1.671875 -17.734375 C 1.992188 -19.648438 2.472656 -21.546875 3.109375 -23.421875 C 3.753906 -25.296875 4.492188 -26.867188 5.328125 -28.140625 C 6.171875 -29.421875 7.070312 -30.0625 8.03125 -30.0625 C 9.382812 -30.0625 10.0625 -29.582031 10.0625 -28.625 C 10.0625 -27.664062 9.738281 -26.328125 9.09375 -24.609375 C 8.457031 -22.898438 7.820312 -20.847656 7.1875 -18.453125 C 6.550781 -16.054688 6.234375 -13.421875 6.234375 -10.546875 Z M 6.234375 -10.546875 "/></g></g></g><path fill="#fffef9" d="M 254.550781 253.273438 C 253.511719 254.539062 252.445312 255.773438 251.339844 256.980469 C 250.234375 258.1875 249.097656 259.359375 247.929688 260.503906 C 246.761719 261.644531 245.5625 262.753906 244.332031 263.832031 C 243.101562 264.910156 241.84375 265.953125 240.554688 266.960938 C 239.269531 267.96875 237.957031 268.9375 236.613281 269.875 C 235.273438 270.808594 233.90625 271.707031 232.515625 272.566406 C 231.128906 273.425781 229.714844 274.246094 228.277344 275.027344 C 226.84375 275.8125 225.386719 276.550781 223.910156 277.253906 C 222.433594 277.957031 220.941406 278.617188 219.425781 279.238281 C 217.914062 279.855469 216.386719 280.433594 214.839844 280.96875 C 213.296875 281.503906 211.738281 281.996094 210.167969 282.445312 C 208.59375 282.894531 207.011719 283.300781 205.417969 283.664062 C 203.824219 284.023438 202.21875 284.34375 200.609375 284.617188 C 198.996094 284.890625 197.378906 285.121094 195.753906 285.304688 C 194.128906 285.488281 192.503906 285.628906 190.871094 285.722656 C 189.238281 285.816406 187.605469 285.867188 185.96875 285.871094 C 184.335938 285.878906 182.703125 285.835938 181.070312 285.753906 C 179.4375 285.667969 177.808594 285.539062 176.183594 285.363281 C 174.558594 285.1875 172.9375 284.96875 171.324219 284.703125 C 169.710938 284.441406 168.105469 284.132812 166.511719 283.78125 C 164.914062 283.425781 163.328125 283.03125 161.753906 282.589844 C 160.179688 282.152344 158.617188 281.667969 157.070312 281.140625 C 155.523438 280.617188 153.992188 280.046875 152.472656 279.4375 C 150.957031 278.828125 149.460938 278.175781 147.980469 277.484375 C 146.5 276.789062 145.039062 276.058594 143.597656 275.285156 C 142.15625 274.511719 140.738281 273.699219 139.34375 272.847656 C 137.949219 271.996094 136.578125 271.105469 135.230469 270.179688 C 133.886719 269.25 132.566406 268.289062 131.273438 267.289062 C 129.976562 266.289062 128.714844 265.253906 127.476562 264.183594 C 126.242188 263.113281 125.035156 262.011719 123.859375 260.875 C 122.683594 259.738281 121.539062 258.574219 120.429688 257.375 C 119.316406 256.175781 118.238281 254.945312 117.195312 253.6875 L 132.457031 241.03125 C 133.269531 242.007812 134.105469 242.964844 134.96875 243.894531 C 135.835938 244.828125 136.722656 245.734375 137.636719 246.617188 C 138.550781 247.5 139.488281 248.359375 140.449219 249.1875 C 141.410156 250.019531 142.390625 250.824219 143.398438 251.601562 C 144.402344 252.378906 145.429688 253.125 146.476562 253.847656 C 147.523438 254.566406 148.585938 255.257812 149.671875 255.921875 C 150.757812 256.582031 151.859375 257.214844 152.976562 257.816406 C 154.097656 258.417969 155.230469 258.984375 156.382812 259.523438 C 157.535156 260.0625 158.699219 260.570312 159.878906 261.042969 C 161.054688 261.519531 162.246094 261.960938 163.449219 262.367188 C 164.652344 262.777344 165.867188 263.152344 167.089844 263.496094 C 168.3125 263.835938 169.546875 264.144531 170.785156 264.417969 C 172.027344 264.691406 173.273438 264.933594 174.527344 265.136719 C 175.78125 265.34375 177.039062 265.511719 178.304688 265.648438 C 179.566406 265.785156 180.832031 265.886719 182.101562 265.953125 C 183.371094 266.019531 184.640625 266.050781 185.910156 266.046875 C 187.179688 266.042969 188.449219 266.003906 189.71875 265.929688 C 190.988281 265.855469 192.253906 265.746094 193.515625 265.601562 C 194.777344 265.460938 196.035156 265.28125 197.289062 265.070312 C 198.539062 264.855469 199.785156 264.609375 201.023438 264.328125 C 202.265625 264.046875 203.496094 263.730469 204.714844 263.382812 C 205.9375 263.03125 207.148438 262.648438 208.347656 262.234375 C 209.550781 261.816406 210.738281 261.367188 211.914062 260.886719 C 213.089844 260.40625 214.25 259.894531 215.398438 259.347656 C 216.546875 258.800781 217.679688 258.226562 218.792969 257.617188 C 219.910156 257.007812 221.007812 256.371094 222.089844 255.703125 C 223.167969 255.035156 224.230469 254.335938 225.273438 253.609375 C 226.3125 252.882812 227.335938 252.128906 228.335938 251.34375 C 229.335938 250.5625 230.316406 249.753906 231.269531 248.914062 C 232.226562 248.078125 233.160156 247.214844 234.066406 246.328125 C 234.976562 245.4375 235.859375 244.527344 236.71875 243.589844 C 237.574219 242.652344 238.40625 241.691406 239.210938 240.710938 Z M 254.550781 253.273438 " fill-opacity="1" fill-rule="nonzero"/><g fill="#122620" fill-opacity="1"><g transform="translate(123.411376, 252.983918)"><g><path d="M 11.265625 -0.203125 L 9.125 -2.359375 L 3.359375 3.375 L 2.21875 2.234375 L 7.984375 -3.5 L 5.859375 -5.640625 L 6.890625 -6.65625 L 12.296875 -1.21875 Z M 11.265625 -0.203125 "/></g></g></g><g fill="#122620" fill-opacity="1"><g transform="translate(138.479912, 266.196829)"><g><path d="M 8.25 4.84375 L 6.859375 4.03125 L 8.875 0.609375 L 4.5 -1.96875 L 2.484375 1.453125 L 1.09375 0.640625 L 5.9375 -7.625 L 7.328125 -6.8125 L 5.234375 -3.21875 L 9.609375 -0.640625 L 11.703125 -4.234375 L 13.09375 -3.421875 Z M 8.25 4.84375 "/></g></g></g><g fill="#122620" fill-opacity="1"><g transform="translate(159.101263, 276.335809)"><g><path d="M 7.09375 1.90625 L 6.140625 -1.375 C 6.054688 -1.382812 5.914062 -1.414062 5.71875 -1.46875 L 3.53125 -2.046875 L 2.78125 0.75 L 1.21875 0.328125 L 3.703125 -8.921875 L 7.453125 -7.921875 C 8.640625 -7.597656 9.476562 -7.078125 9.96875 -6.359375 C 10.46875 -5.640625 10.582031 -4.773438 10.3125 -3.765625 C 10.113281 -3.023438 9.785156 -2.441406 9.328125 -2.015625 C 8.867188 -1.597656 8.296875 -1.351562 7.609375 -1.28125 L 8.859375 2.375 Z M 3.90625 -3.453125 L 6.09375 -2.875 C 7.59375 -2.46875 8.507812 -2.878906 8.84375 -4.109375 C 9.15625 -5.304688 8.5625 -6.109375 7.0625 -6.515625 L 4.875 -7.09375 Z M 3.90625 -3.453125 "/></g></g></g><g fill="#122620" fill-opacity="1"><g transform="translate(180.710173, 280.44312)"><g><path d="M 8.140625 -8.09375 L 2.90625 -8.109375 L 2.890625 -5.53125 L 7.578125 -5.515625 L 7.578125 -4.0625 L 2.890625 -4.078125 L 2.875 -1.4375 L 8.265625 -1.421875 L 8.265625 0.03125 L 1.265625 0 L 1.296875 -9.578125 L 8.140625 -9.546875 Z M 8.140625 -8.09375 "/></g></g></g><g fill="#122620" fill-opacity="1"><g transform="translate(201.756884, 279.020619)"><g><path d="M 6.671875 -3.984375 L 1.984375 -2.75 L 1.640625 -0.4375 L 0.015625 0 L 1.6875 -10.34375 L 3.296875 -10.765625 L 9.765625 -2.546875 L 8.09375 -2.109375 Z M 5.703125 -5.203125 L 2.875 -8.875 L 2.203125 -4.296875 Z M 5.703125 -5.203125 "/></g></g></g><g fill="#122620" fill-opacity="1"><g transform="translate(222.833449, 271.855588)"><g><path d="M -3.703125 -8.921875 L -0.3125 -10.875 C 0.9375 -11.601562 2.1875 -11.8125 3.4375 -11.5 C 4.695312 -11.1875 5.675781 -10.425781 6.375 -9.21875 C 7.070312 -8.019531 7.238281 -6.796875 6.875 -5.546875 C 6.519531 -4.296875 5.710938 -3.304688 4.453125 -2.578125 L 1.09375 -0.640625 Z M -1.59375 -8.46875 L 1.75 -2.6875 L 3.796875 -3.875 C 4.609375 -4.34375 5.128906 -5.003906 5.359375 -5.859375 C 5.585938 -6.710938 5.457031 -7.554688 4.96875 -8.390625 C 4.488281 -9.234375 3.804688 -9.765625 2.921875 -9.984375 C 2.046875 -10.210938 1.203125 -10.085938 0.390625 -9.609375 Z M -1.59375 -8.46875 "/></g></g></g><g fill="#122620" fill-opacity="1"><g transform="translate(241.571686, 259.026787)"><g><path d="M -3.703125 -9.9375 C -2.828125 -10.8125 -1.800781 -11.375 -0.625 -11.625 L -0.09375 -10.140625 C -1.195312 -9.859375 -2.066406 -9.40625 -2.703125 -8.78125 C -3.046875 -8.4375 -3.253906 -8.101562 -3.328125 -7.78125 C -3.410156 -7.46875 -3.335938 -7.195312 -3.109375 -6.96875 C -2.890625 -6.738281 -2.609375 -6.632812 -2.265625 -6.65625 C -1.929688 -6.6875 -1.585938 -6.800781 -1.234375 -7 C -0.890625 -7.195312 -0.503906 -7.394531 -0.078125 -7.59375 C 0.347656 -7.800781 0.757812 -7.972656 1.15625 -8.109375 C 1.550781 -8.253906 1.972656 -8.28125 2.421875 -8.1875 C 2.867188 -8.101562 3.285156 -7.867188 3.671875 -7.484375 C 4.253906 -6.898438 4.488281 -6.191406 4.375 -5.359375 C 4.257812 -4.523438 3.820312 -3.726562 3.0625 -2.96875 C 2.550781 -2.445312 1.953125 -2.046875 1.265625 -1.765625 C 0.585938 -1.484375 -0.09375 -1.328125 -0.78125 -1.296875 L -1.28125 -2.765625 C -0.613281 -2.796875 0.00390625 -2.929688 0.578125 -3.171875 C 1.160156 -3.410156 1.640625 -3.710938 2.015625 -4.078125 C 2.410156 -4.472656 2.644531 -4.851562 2.71875 -5.21875 C 2.800781 -5.59375 2.710938 -5.910156 2.453125 -6.171875 C 2.222656 -6.410156 1.9375 -6.515625 1.59375 -6.484375 C 1.25 -6.460938 0.90625 -6.351562 0.5625 -6.15625 C 0.21875 -5.957031 -0.160156 -5.753906 -0.578125 -5.546875 C -1.003906 -5.335938 -1.410156 -5.15625 -1.796875 -5 C -2.191406 -4.84375 -2.609375 -4.804688 -3.046875 -4.890625 C -3.492188 -4.984375 -3.90625 -5.21875 -4.28125 -5.59375 C -4.851562 -6.175781 -5.085938 -6.859375 -4.984375 -7.640625 C -4.878906 -8.429688 -4.453125 -9.195312 -3.703125 -9.9375 Z M -3.703125 -9.9375 "/></g></g></g></svg>